<svg xmlns="http://www.w3.org/2000/svg" width="26" height="26" viewBox="0 0 26 26"><g fill="none" fill-rule="evenodd"><path fill="#F0F3F3" d="M-1870-151H467v1794h-2337z"></path><path d="M-1159-73H281v255h-1440z" fill="#FFF"></path><path fill="#384040" d="M26 13c0 7.18-5.82 13-13 13S0 20.18 0 13 5.82 0 13 0s13 5.82 13 13"></path><g fill="#FFF"><path d="M16.909 8.2a.871.871 0 100 1.742.871.871 0 000-1.742m-3.872 7.12a2.347 2.347 0 01-2.344-2.344 2.347 2.347 0 012.344-2.344 2.345 2.345 0 010 4.688m0-6.002c-2.018 0-3.66 1.64-3.66 3.658s1.642 3.66 3.66 3.66a3.663 3.663 0 003.659-3.66 3.662 3.662 0 00-3.66-3.658"></path><path d="M10.009 6.945a3.067 3.067 0 00-3.064 3.065v5.932a3.068 3.068 0 003.064 3.065h5.933a3.068 3.068 0 003.065-3.065V10.01a3.069 3.069 0 00-3.065-3.065h-5.933zm5.933 13.46h-5.933a4.468 4.468 0 01-4.462-4.463V10.01a4.468 4.468 0 014.462-4.463h5.933a4.467 4.467 0 014.462 4.463v5.932c0 2.461-2 4.463-4.462 4.463z"></path></g></g></svg>