<svg xmlns="http://www.w3.org/2000/svg" width="135" height="24" viewBox="0 0 135 24"><path d="M46.165 18.974l2.21-1.637a10.497 10.497 0 008.227 3.994c3.246 0 6.255-1.506 8.26-3.994l2.21 1.637C64.607 22.15 60.715 24 56.602 24c-4.097 0-8.006-1.85-10.437-5.026zM135 7.956v7.94h-3.383V8.284c0-1.408-.934-2.685-2.447-2.62-1.241.05-2.21.884-2.822 1.949v8.283h-3.4V3.422h3.4v1.735c1.105-1.26 2.38-1.965 4.114-1.981C133.3 3.143 135 5.271 135 7.956zm-89.226 0v7.94h-3.382V8.284c0-1.408-.935-2.685-2.448-2.62-1.24.05-2.21.884-2.821 1.949v8.283h-3.4V3.422h3.4v1.735c1.104-1.26 2.38-1.965 4.113-1.981 2.838-.033 4.538 2.095 4.538 4.78zm34.047 0v7.94h-3.383V8.284c0-1.408-.935-2.685-2.448-2.62-1.24.05-2.21.884-2.821 1.949v8.283h-3.4V3.422h3.4v1.735c1.104-1.26 2.379-1.965 4.113-1.981 2.839-.033 4.539 2.095 4.539 4.78zM51.91 7.94l2.464-1.9V3.423h-3.671v12.474h3.671V9.872L51.91 7.94zm51.524.442c-.135-1.604-.866-3.045-2.617-3.045-1.75 0-2.584 1.342-2.77 3.045h5.387zm3.298 1.506v.475h-8.737c.188 2.292 1.649 3.389 3.876 3.389 1.768 0 3.144-.557 4.572-1.523v2.456c-1.479.933-2.89 1.44-5.1 1.44-3.994 0-6.713-2.406-6.713-6.483 0-3.716 2.21-6.564 6.102-6.548 4.402.016 6.051 2.898 6 6.794zM60.307 7.94l2.465-1.9V3.423H59.1v12.474h3.672V9.872L60.307 7.94zm59.735-4.027v3.421c-1.173-.998-3.008-1.195-4.385-.344-.629.393-1.343 1.146-1.853 2.243v6.663h-3.4V3.422h3.4v2.914c.8-1.932 2.312-3.062 3.706-3.16 1.172-.082 2.04.294 2.532.737zM84.682.95L87.944 0v3.601h3.944v2.145h-3.944v5.763c-.017 1.228.646 1.915 1.785 1.932.918.016 1.496-.197 2.295-.524v2.52c-1.071.476-2.04.689-3.094.689-2.55 0-4.25-1.572-4.25-4.257V5.746h-2.056V3.601h2.056V.95zM25.325 15.896h3.4V3.422h-3.4v12.474zM11.507 5.664c1.156-1.49 2.652-2.455 4.538-2.488 2.907-.05 4.59 2.145 4.59 4.731v7.99h-3.4V8.463c0-1.408-.697-2.8-2.294-2.8-1.14 0-2.278.786-2.958 1.949v8.283H8.601V8.4c0-1.425-.833-2.735-2.329-2.735-1.24 0-2.278.852-2.873 1.949v8.283H0V3.422h3.4v1.735c1.138-1.26 2.43-1.948 4.147-1.981 1.818-.033 3.195.917 3.96 2.488z" fill="#1A1B1C" fill-rule="evenodd"></path></svg>